<svg width="237" height="48" viewBox="0 0 237 48" fill="none" xmlns="http://www.w3.org/2000/svg">
<path d="M206.489 36.7076C205.232 36.7076 204.128 36.3782 203.177 35.7195C202.234 35.0607 201.556 34.0611 201.142 32.7206C200.735 31.3801 200.701 29.691 201.038 27.6535C201.391 25.524 202.008 23.7928 202.89 22.46C203.779 21.1272 204.799 20.1505 205.949 19.5301C207.106 18.9096 208.268 18.5994 209.433 18.5994C210.307 18.5994 211.047 18.7526 211.652 19.059C212.266 19.3577 212.753 19.7599 213.113 20.2654C213.473 20.7633 213.718 21.311 213.849 21.9085H213.941L215.436 12.9463H221.784L217.874 36.4778H211.572L212.055 33.5823H211.917C211.572 34.1798 211.131 34.716 210.594 35.1909C210.065 35.6582 209.456 36.0297 208.766 36.3055C208.076 36.5736 207.317 36.7076 206.489 36.7076ZM209.64 31.8358C210.223 31.8358 210.752 31.6673 211.227 31.3303C211.702 30.9856 212.105 30.503 212.434 29.8825C212.764 29.2544 212.998 28.5114 213.136 27.6535C213.282 26.7802 213.293 26.0334 213.17 25.4129C213.048 24.7848 212.802 24.3061 212.434 23.9767C212.074 23.6396 211.603 23.4711 211.02 23.4711C210.437 23.4711 209.912 23.6396 209.444 23.9767C208.977 24.3061 208.582 24.7848 208.26 25.4129C207.946 26.0334 207.716 26.7802 207.57 27.6535C207.424 28.5267 207.405 29.2774 207.512 29.9055C207.627 30.526 207.865 31.0047 208.225 31.3418C208.586 31.6712 209.057 31.8358 209.64 31.8358Z" fill="#00262B"/>
<path d="M188.834 36.7998C186.948 36.7998 185.384 36.4397 184.142 35.7197C182.9 34.992 182.026 33.9502 181.52 32.5944C181.014 31.2309 180.922 29.5994 181.244 27.6997C181.551 25.8766 182.184 24.2833 183.142 22.9198C184.108 21.5564 185.323 20.4955 186.787 19.7371C188.259 18.9788 189.908 18.5996 191.732 18.5996C193.066 18.5996 194.235 18.8064 195.24 19.2201C196.252 19.6337 197.076 20.235 197.712 21.024C198.348 21.813 198.778 22.7666 199 23.885C199.23 24.9957 199.23 26.2519 199 27.6537L198.77 29.1244H182.992L183.544 25.6315H193.48C193.557 25.1259 193.507 24.6816 193.331 24.2986C193.162 23.908 192.89 23.6054 192.514 23.3909C192.146 23.1688 191.702 23.0577 191.18 23.0577C190.659 23.0577 190.168 23.1688 189.708 23.3909C189.256 23.6131 188.869 23.9233 188.547 24.3216C188.232 24.7199 188.022 25.1872 187.914 25.7234L187.224 29.4002C187.132 29.967 187.167 30.4726 187.328 30.9169C187.489 31.3612 187.769 31.7097 188.167 31.9625C188.566 32.2153 189.08 32.3416 189.708 32.3416C190.138 32.3416 190.544 32.2842 190.927 32.1693C191.318 32.0467 191.663 31.8706 191.962 31.6408C192.269 31.4033 192.514 31.116 192.698 30.779H198.494C198.08 32.0046 197.425 33.0693 196.528 33.9732C195.638 34.8694 194.542 35.5665 193.239 36.0644C191.943 36.5546 190.475 36.7998 188.834 36.7998Z" fill="#00262B"/>
<path d="M180.959 18.8299L180.177 23.4259H168.539L169.321 18.8299H180.959ZM172.265 14.6016H178.613L175.922 30.8025C175.884 31.0476 175.891 31.2544 175.945 31.4229C175.999 31.5838 176.106 31.7063 176.267 31.7906C176.436 31.8672 176.658 31.9055 176.934 31.9055C177.118 31.9055 177.344 31.8825 177.612 31.8366C177.881 31.7829 178.084 31.7446 178.222 31.7217L178.406 36.1798C178.084 36.2717 177.651 36.3751 177.106 36.49C176.57 36.6126 175.945 36.693 175.232 36.7313C173.745 36.8002 172.533 36.6432 171.598 36.2602C170.67 35.8772 170.026 35.2797 169.666 34.4678C169.313 33.6482 169.252 32.6255 169.482 31.3999L172.265 14.6016Z" fill="#00262B"/>
<path d="M157.9 36.4782L160.844 18.8296H167.192L164.248 36.4782H157.9ZM164.294 16.9912C163.436 16.9912 162.742 16.7077 162.213 16.1409C161.684 15.5664 161.488 14.8847 161.626 14.0957C161.764 13.2914 162.186 12.6096 162.891 12.0505C163.597 11.4836 164.379 11.2002 165.237 11.2002C166.104 11.2002 166.794 11.4836 167.307 12.0505C167.821 12.6096 168.012 13.2914 167.882 14.0957C167.76 14.8847 167.346 15.5664 166.64 16.1409C165.943 16.7077 165.161 16.9912 164.294 16.9912Z" fill="#00262B"/>
<path d="M127.492 36.478L130.436 18.8294H136.462L135.91 22.1845H136.094C136.638 21.0814 137.409 20.2082 138.405 19.5648C139.402 18.9213 140.518 18.5996 141.752 18.5996C142.986 18.5996 143.998 18.929 144.788 19.5877C145.577 20.2388 145.976 21.1044 145.984 22.1845H146.168C146.643 21.1044 147.421 20.2388 148.502 19.5877C149.583 18.929 150.783 18.5996 152.102 18.5996C153.781 18.5996 155.057 19.1435 155.931 20.2312C156.813 21.3189 157.1 22.7666 156.794 24.5744L154.816 36.478H148.468L150.216 26.183C150.323 25.4093 150.216 24.8042 149.894 24.3676C149.572 23.9233 149.081 23.7012 148.422 23.7012C147.77 23.7012 147.218 23.9233 146.766 24.3676C146.321 24.8042 146.045 25.4093 145.938 26.183L144.19 36.478H138.118L139.866 26.183C139.973 25.4093 139.866 24.8042 139.544 24.3676C139.222 23.9233 138.731 23.7012 138.072 23.7012C137.643 23.7012 137.252 23.8007 136.899 23.9999C136.554 24.1991 136.266 24.4863 136.036 24.8617C135.814 25.2293 135.665 25.6698 135.588 26.183L133.84 36.478H127.492Z" fill="#00262B"/>
<path d="M117.863 36.4782L120.807 18.8296H127.155L124.211 36.4782H117.863ZM124.257 16.9912C123.398 16.9912 122.705 16.7077 122.176 16.1409C121.647 15.5664 121.451 14.8847 121.589 14.0957C121.727 13.2914 122.149 12.6096 122.854 12.0505C123.559 11.4836 124.341 11.2002 125.2 11.2002C126.066 11.2002 126.756 11.4836 127.27 12.0505C127.784 12.6096 127.975 13.2914 127.845 14.0957C127.722 14.8847 127.308 15.5664 126.603 16.1409C125.905 16.7077 125.123 16.9912 124.257 16.9912Z" fill="#00262B"/>
<path d="M118.539 12.9463L114.629 36.4778H108.281L112.191 12.9463H118.539Z" fill="#00262B"/>
<path d="M95.3964 26.5507L93.7404 36.478H87.3926L90.3365 18.8294H96.3624L95.8104 22.1845H95.9944C96.554 21.0585 97.3705 20.1814 98.4438 19.5533C99.5248 18.9175 100.717 18.5996 102.02 18.5996C103.27 18.5996 104.309 18.883 105.137 19.4499C105.965 20.0167 106.551 20.798 106.896 21.7938C107.241 22.7896 107.302 23.931 107.08 25.2178L105.194 36.478H98.8463L100.502 26.5507C100.648 25.6774 100.541 24.9919 100.18 24.494C99.8276 23.9961 99.245 23.7471 98.4323 23.7471C97.9187 23.7471 97.4472 23.862 97.0179 24.0918C96.5962 24.314 96.2435 24.6357 95.9599 25.057C95.6839 25.4706 95.4961 25.9685 95.3964 26.5507Z" fill="#00262B"/>
<path d="M79.058 28.7565L80.7139 18.8291H87.0618L84.1179 36.4777H78.092L78.644 33.1227H78.46C77.9157 34.2487 77.103 35.1296 76.0221 35.7654C74.9487 36.3935 73.7528 36.7075 72.4341 36.7075C71.1998 36.7075 70.1687 36.4241 69.3407 35.8573C68.5127 35.2904 67.9262 34.5091 67.5812 33.5133C67.2363 32.5175 67.1673 31.3762 67.3742 30.0893L69.2602 18.8291H75.6081L73.9521 28.7565C73.8218 29.6297 73.9329 30.3153 74.2856 30.8132C74.6459 31.3111 75.2247 31.56 76.0221 31.56C76.551 31.56 77.0264 31.4489 77.448 31.2268C77.8773 30.997 78.23 30.6753 78.506 30.2616C78.7897 29.8403 78.9737 29.3386 79.058 28.7565Z" fill="#00262B"/>
<g clip-path="url(#clip0_246_68287)">
<path d="M39.8927 12.7025L41.0971 7.18555H5.79125L0 33.6998H29.5192L27.8949 40.8139H56.1682L62.4071 12.7025H39.8927Z" fill="#00262B"/>
<path d="M12.0276 30.3135C11.2292 30.3135 10.4725 30.1896 9.76182 29.9374C9.05118 29.6853 8.42821 29.3136 7.90216 28.827C7.37148 28.3359 6.95618 27.7342 6.647 27.0175C6.33783 26.3007 6.18555 25.4778 6.18555 24.5488C6.18555 23.279 6.37013 22.1199 6.73929 21.0758C7.10846 20.0316 7.62067 19.138 8.28055 18.3903C8.94043 17.6426 9.72952 17.0674 10.6478 16.656C11.5661 16.249 12.5767 16.041 13.6703 16.041C14.4087 16.041 15.1101 16.1649 15.77 16.4126C16.4344 16.6604 17.0113 17.0188 17.5096 17.4922C18.008 17.9655 18.4049 18.5451 18.6956 19.2397C18.9909 19.9299 19.134 20.7218 19.134 21.6199C19.134 21.7571 19.1293 21.9164 19.1201 22.0978C19.1109 22.2836 19.097 22.4694 19.0786 22.6596C19.0601 22.8499 19.0417 23.0401 19.0278 23.2215C19.0094 23.4029 18.9863 23.5622 18.9632 23.686H8.59895C8.58972 23.8055 8.58511 23.9205 8.58049 24.0311C8.57588 24.1417 8.57588 24.2568 8.57588 24.3762C8.57588 25.0841 8.68202 25.6858 8.89428 26.1857C9.10655 26.6857 9.38343 27.0927 9.72952 27.4068C10.071 27.7209 10.4586 27.951 10.8832 28.0926C11.3077 28.2341 11.7415 28.3049 12.1752 28.3049C13.1258 28.3049 13.8918 28.1456 14.4687 27.8315C15.0455 27.5174 15.4885 27.0883 15.7884 26.5529H18.2295C18.0772 27.0838 17.828 27.5749 17.4819 28.035C17.1359 28.4952 16.6975 28.8933 16.1668 29.2296C15.6361 29.5658 15.0224 29.8313 14.3256 30.0215C13.6334 30.2206 12.8628 30.3135 12.0276 30.3135ZM16.7113 21.9119C16.7206 21.8677 16.7252 21.7925 16.7298 21.673C16.7344 21.558 16.7344 21.443 16.7344 21.3324C16.7344 20.8811 16.6652 20.4519 16.5267 20.0449C16.3883 19.6423 16.1806 19.284 15.9038 18.9787C15.6269 18.6734 15.2854 18.4301 14.8747 18.2487C14.464 18.0717 13.9887 17.9788 13.4488 17.9788C12.8951 17.9788 12.3829 18.0717 11.903 18.262C11.4231 18.4478 10.9847 18.7177 10.5971 19.0627C10.2048 19.4078 9.86795 19.8193 9.58185 20.3015C9.29575 20.7838 9.06964 21.3191 8.90351 21.9075L16.7113 21.9119Z" fill="white"/>
<path d="M25.688 30.3164C24.9681 30.3164 24.2898 30.1881 23.6576 29.9271C23.0254 29.666 22.4716 29.2944 21.9963 28.8078C21.521 28.3211 21.1426 27.7327 20.8704 27.0425C20.5935 26.3523 20.4551 25.5825 20.4551 24.7286C20.4551 23.9013 20.5428 23.1094 20.7135 22.3573C20.8888 21.6051 21.1334 20.9017 21.4518 20.2602C21.7702 19.6143 22.1578 19.0347 22.6055 18.5126C23.0531 17.9906 23.5514 17.5482 24.1006 17.1809C24.6497 16.8137 25.2404 16.5306 25.8772 16.3359C26.514 16.1413 27.1785 16.0395 27.8706 16.0395C28.3875 16.0395 28.8766 16.1059 29.3427 16.243C29.8088 16.3802 30.2333 16.5704 30.6117 16.8137C30.9901 17.0571 31.3131 17.3491 31.5854 17.6942C31.8576 18.0392 32.056 18.4153 32.1806 18.8267H32.3929L34.1695 10.8057H36.5045L32.236 30.0687H30.021L30.4363 28.1884H30.2241C29.698 28.8431 29.0427 29.3608 28.249 29.7413C27.4553 30.1262 26.6016 30.3164 25.688 30.3164ZM26.4217 28.3344C27.1692 28.3344 27.8614 28.1662 28.4982 27.83C29.135 27.4938 29.6888 27.0336 30.1595 26.4497C30.6301 25.8657 30.9993 25.1799 31.267 24.3924C31.5346 23.6049 31.6684 22.751 31.6684 21.8396C31.6684 21.2512 31.5854 20.7247 31.4146 20.2513C31.2439 19.7824 31.0039 19.3842 30.6947 19.0568C30.381 18.7294 30.0072 18.4728 29.5596 18.2958C29.1166 18.1145 28.6136 18.026 28.0506 18.026C27.3123 18.026 26.6293 18.1852 25.9971 18.4994C25.365 18.8135 24.8204 19.2515 24.3544 19.8178C23.8929 20.3796 23.5284 21.0521 23.2607 21.8308C22.9931 22.6094 22.8593 23.4677 22.8593 24.3968C22.8593 24.9764 22.9469 25.5073 23.1223 25.994C23.2976 26.4806 23.5376 26.8965 23.8514 27.2416C24.1652 27.5867 24.5343 27.8565 24.9727 28.0468C25.4019 28.237 25.8864 28.3344 26.4217 28.3344Z" fill="white"/>
<path d="M65.4154 16.2014C65.1616 16.2014 64.9217 16.1572 64.7002 16.0643C64.4787 15.9714 64.2802 15.8475 64.1141 15.6838C63.9434 15.5201 63.8142 15.3343 63.7173 15.1219C63.6204 14.9095 63.5742 14.6795 63.5742 14.4362C63.5742 14.1928 63.6204 13.9628 63.7173 13.7504C63.8142 13.538 63.9434 13.3478 64.1141 13.1885C64.2849 13.0248 64.4787 12.901 64.7002 12.808C64.9217 12.7151 65.1616 12.6709 65.4154 12.6709C65.6692 12.6709 65.9092 12.7151 66.1307 12.808C66.3522 12.901 66.5506 13.0248 66.7167 13.1885C66.8875 13.3522 67.0167 13.538 67.1136 13.7504C67.2105 13.9628 67.2566 14.1928 67.2566 14.4362C67.2566 14.6795 67.2105 14.9095 67.1136 15.1219C67.0167 15.3343 66.8875 15.5245 66.7167 15.6838C66.546 15.8431 66.3522 15.9714 66.1307 16.0643C65.9092 16.1572 65.6692 16.2014 65.4154 16.2014ZM65.4154 15.874C65.6923 15.874 65.9461 15.8077 66.1722 15.6794C66.3983 15.5511 66.5783 15.3741 66.7167 15.1573C66.8505 14.9405 66.9198 14.6972 66.9198 14.4317C66.9198 14.1663 66.8505 13.9229 66.7167 13.7062C66.5829 13.4894 66.3983 13.3168 66.1722 13.1841C65.9461 13.0558 65.6923 12.9894 65.4154 12.9894C65.1385 12.9894 64.8847 13.0558 64.6586 13.1841C64.4325 13.3124 64.2526 13.4894 64.1141 13.7062C63.9803 13.9229 63.9111 14.1663 63.9111 14.4317C63.9111 14.6972 63.9803 14.9405 64.1141 15.1573C64.2479 15.3741 64.4325 15.5466 64.6586 15.6794C64.8847 15.8077 65.1385 15.874 65.4154 15.874ZM64.7878 15.2281V13.5956H65.6046C65.6923 13.5956 65.7754 13.6133 65.8538 13.6531C65.9369 13.6929 66.0015 13.7504 66.0522 13.8256C66.1076 13.9008 66.1307 13.9937 66.1307 14.1043C66.1307 14.2149 66.103 14.3123 66.0476 14.3919C65.9922 14.4715 65.923 14.5335 65.84 14.5777C65.7569 14.622 65.6692 14.6397 65.5815 14.6397H64.9494V14.4185H65.5031C65.5815 14.4185 65.6508 14.3919 65.7154 14.3388C65.7754 14.2857 65.8077 14.2061 65.8077 14.1088C65.8077 14.007 65.7754 13.9318 65.7154 13.8876C65.6554 13.8433 65.5862 13.8212 65.5123 13.8212H65.0832V15.2281H64.7878ZM65.78 14.4715L66.2045 15.2281H65.8723L65.4616 14.4715H65.78Z" fill="#00262B"/>
<path d="M57.4506 16.3271H52.2408L46.5649 23.0696H46.2834L43.2793 16.3271H38.0141L42.5272 26.1223L32.7812 37.1917H37.9172L44.1746 30.0776H44.5945L47.9769 37.1917H53.1452L48.1477 26.609L57.4506 16.3271Z" fill="white"/>
</g>
<defs>
<clipPath id="clip0_246_68287">
<rect width="67.2568" height="33.6284" fill="white" transform="translate(0 7.18555)"/>
</clipPath>
</defs>
</svg>
